<svg id="consultation" xmlns="http://www.w3.org/2000/svg" width="208.296" height="208.296" viewBox="0 0 208.296 208.296">
  <path id="Path_3" data-name="Path 3" d="M215.517,54.206,240.25,33.6h32.381V0H192V33.6h23.517Zm-16.8-27.33V6.719h67.192V26.877H237.819L222.236,39.862V26.877Zm0,0" transform="translate(-111.369 0)" fill="#b5508c"/>
  <path id="Path_4" data-name="Path 4" d="M224,32h6.719v6.719H224Zm0,0" transform="translate(-129.931 -18.562)" fill="#b5508c"/>
  <path id="Path_5" data-name="Path 5" d="M256,32h26.877v6.719H256Zm0,0" transform="translate(-148.492 -18.562)" fill="#b5508c"/>
  <path id="Path_6" data-name="Path 6" d="M336,32h6.719v6.719H336Zm0,0" transform="translate(-194.896 -18.562)" fill="#b5508c"/>
  <path id="Path_7" data-name="Path 7" d="M171.02,271.182l-2.717-27.2a23.532,23.532,0,0,0,19.834-23.2V177.113H174.7v-4.642a12.086,12.086,0,0,0-6.545-10.771,20.078,20.078,0,0,0,6.545-14.823v-6.719a20.158,20.158,0,0,0-40.315,0v6.719A20.173,20.173,0,0,0,147.665,165.8l-18.032,18.032h-18.84a13.473,13.473,0,0,0-9.672-12.041l-13.771-3.93v-6a20.089,20.089,0,0,0,6.719-14.984v-6.719a20.158,20.158,0,0,0-40.315,0v6.719a20.1,20.1,0,0,0,6.719,14.984v6L46.7,171.795a13.489,13.489,0,0,0-9.746,12.922v12.554H23.517v20.158h6.719v53.754H0V277.9H208.3v-6.719ZM141.1,217.428V202.022l23.806-23.806a10.524,10.524,0,0,0,2.974-6.444,5.469,5.469,0,0,1,.1.7v41.6A10.092,10.092,0,0,1,157.9,224.148H131.024v-6.719Zm-10.079,26.877h17.118l2.687,26.877h-19.8Zm23.87,0h6.686l2.687,26.877h-6.686Zm19.8-30.236V183.832h6.719v36.956a16.818,16.818,0,0,1-16.8,16.8h-33.6v-6.719H157.9A16.818,16.818,0,0,0,174.7,214.069Zm-33.6-67.192v-6.719a13.438,13.438,0,0,1,26.877,0v6.719a13.438,13.438,0,0,1-26.877,0Zm-8.688,43.675,22.415-22.415a3.768,3.768,0,0,1,5.328,5.328l-23.806,23.806H100.788a3.36,3.36,0,1,1,0-6.719ZM60.472,140.158a13.438,13.438,0,0,1,26.877,0v6.719a13.438,13.438,0,0,1-26.877,0Zm13.438,26.877a20.059,20.059,0,0,0,6.719-1.176v3.609c-.833,1.286-3.148,4.286-6.719,4.286s-5.886-3-6.719-4.286v-3.609A20.059,20.059,0,0,0,73.911,167.034ZM43.674,184.717a6.75,6.75,0,0,1,4.872-6.462l13.84-3.953c1.949,2.539,5.742,6.171,11.524,6.171s9.575-3.632,11.524-6.175l13.84,3.953A6.7,6.7,0,0,1,104,183.829h-3.215a10.092,10.092,0,0,0-10.079,10.079,9.939,9.939,0,0,0,.618,3.36H43.674ZM30.236,203.99H134.384v6.719H30.236Zm6.719,26.877H47.034v-6.719H36.955v-6.719H124.3v6.719H53.753v6.719H124.3v40.315h-8l-6.719-13.438H51.676l-6.719,13.438h-8Zm71.835,40.315H52.471l3.36-6.719h49.6Zm0,0" transform="translate(0 -69.606)" fill="#b5508c"/>
</svg>
