<svg id="education" xmlns="http://www.w3.org/2000/svg" width="201.576" height="201.576" viewBox="0 0 201.576 201.576">
  <g id="Group_2" data-name="Group 2" transform="translate(0 0)">
    <g id="Group_1" data-name="Group 1">
      <path id="Path_8" data-name="Path 8" d="M198.218,0H3.36A3.359,3.359,0,0,0,0,3.358V70.552H6.719V6.719H194.857V80.631H77.271V87.35H198.217a3.359,3.359,0,0,0,3.36-3.358V3.36A3.359,3.359,0,0,0,198.218,0Z" transform="translate(0 0)" fill="#b5508b"/>
    </g>
  </g>
  <g id="Group_4" data-name="Group 4" transform="translate(110.867 16.798)">
    <g id="Group_3" data-name="Group 3">
      <rect id="Rectangle_3" data-name="Rectangle 3" width="67" height="6" transform="translate(-0.137 0.483)" fill="#b5508b"/>
    </g>
  </g>
  <g id="Group_6" data-name="Group 6" transform="translate(120.946 36.956)">
    <g id="Group_5" data-name="Group 5">
      <rect id="Rectangle_4" data-name="Rectangle 4" width="67" height="6" transform="translate(-0.216 0.326)" fill="#b5508b"/>
    </g>
  </g>
  <g id="Group_8" data-name="Group 8" transform="translate(107.507 57.113)">
    <g id="Group_7" data-name="Group 7">
      <rect id="Rectangle_5" data-name="Rectangle 5" width="67" height="7" transform="translate(0.222 0.168)" fill="#b5508b"/>
    </g>
  </g>
  <g id="Group_10" data-name="Group 10" transform="translate(0 13.438)">
    <g id="Group_9" data-name="Group 9">
      <path id="Path_9" data-name="Path 9" d="M107.239,47.527a10.842,10.842,0,0,0-14.175-5.846c-.094.039-.189.08-.282.122L65.542,55.935a16.613,16.613,0,0,0,1.65-7.137,16.8,16.8,0,1,0-30.15,10.079H36.9A23.054,23.054,0,0,0,15.486,73.792L6.518,104.7a10.761,10.761,0,1,0,20.206,7.4l3.513-11.181v48.623A16.748,16.748,0,0,0,8.436,174.9,15.477,15.477,0,0,0,0,188.625v28.153a3.359,3.359,0,0,0,3.358,3.36h33.6a3.359,3.359,0,0,0,3.36-3.358V188.625a15.442,15.442,0,0,0-6-12.162H59.749a15.439,15.439,0,0,0-6,12.162v28.153a3.359,3.359,0,0,0,3.358,3.36h33.6a3.359,3.359,0,0,0,3.36-3.358V188.625A15.477,15.477,0,0,0,85.634,174.9a16.783,16.783,0,0,0-15.082-28.455V77.715L101.394,61.7A10.842,10.842,0,0,0,107.239,47.527ZM50.394,38.719A10.079,10.079,0,1,1,40.315,48.8,10.079,10.079,0,0,1,50.394,38.719Zm-30.236,114.1A10.079,10.079,0,1,1,10.079,162.9,10.079,10.079,0,0,1,20.158,152.821Zm13.438,60.6H6.719V188.625a8.815,8.815,0,0,1,8.8-8.8h9.268a8.815,8.815,0,0,1,8.8,8.8ZM87.35,188.625v24.793H60.473V188.625a8.815,8.815,0,0,1,8.8-8.8h9.268A8.815,8.815,0,0,1,87.35,188.625Zm-13.438-35.8A10.079,10.079,0,1,1,63.832,162.9,10.09,10.09,0,0,1,73.911,152.821Zm27.18-99.689a4.321,4.321,0,0,1-2.536,2.487L65.645,72.692a3.36,3.36,0,0,0-1.813,2.982v73.873a16.572,16.572,0,0,0-5.228,20.2H53.754V112.631H47.034v57.113H35.464a16.643,16.643,0,0,0,1.479-6.719h.013V79.034a3.36,3.36,0,0,0-6.565-1.007L20.359,109.95a4.04,4.04,0,0,1-5.6,2.234,4.124,4.124,0,0,1-1.876-5.335l8.968-30.912A16.231,16.231,0,0,1,36.9,65.6H60.69a3.346,3.346,0,0,0,1.547-.377L95.628,47.886a4.136,4.136,0,0,1,5.287,1.959A4.087,4.087,0,0,1,101.092,53.132Z" transform="translate(0 -32)" fill="#b5508b"/>
    </g>
  </g>
  <g id="Group_12" data-name="Group 12" transform="translate(107.507 127.505)">
    <g id="Group_11" data-name="Group 11">
      <path id="Path_10" data-name="Path 10" d="M287.88,332.448a16.8,16.8,0,1,0-23.754-.31q.153.157.31.31A15.478,15.478,0,0,0,256,346.177V374.33a3.359,3.359,0,0,0,3.358,3.36h33.6a3.359,3.359,0,0,0,3.36-3.358V346.177A15.477,15.477,0,0,0,287.88,332.448Zm-11.722-22.075a10.079,10.079,0,1,1-10.079,10.079A10.079,10.079,0,0,1,276.158,310.373Zm13.438,60.6H262.719V346.177a8.815,8.815,0,0,1,8.8-8.8h9.268a8.815,8.815,0,0,1,8.8,8.8Z" transform="translate(-256 -303.618)" fill="#b5508b"/>
    </g>
  </g>
  <g id="Group_14" data-name="Group 14" transform="translate(161.261 127.505)">
    <g id="Group_13" data-name="Group 13">
      <path id="Path_11" data-name="Path 11" d="M415.88,332.448a16.8,16.8,0,1,0-23.754-.31q.153.157.31.31A15.478,15.478,0,0,0,384,346.177V374.33a3.359,3.359,0,0,0,3.358,3.36h33.6a3.359,3.359,0,0,0,3.36-3.358V346.177A15.477,15.477,0,0,0,415.88,332.448Zm-11.722-22.075a10.079,10.079,0,1,1-10.079,10.079A10.079,10.079,0,0,1,404.158,310.373Zm13.438,60.6H390.719V346.177a8.815,8.815,0,0,1,8.8-8.8h9.268a8.815,8.815,0,0,1,8.8,8.8Z" transform="translate(-384 -303.618)" fill="#b5508b"/>
    </g>
  </g>
</svg>
