<svg id="outline" xmlns="http://www.w3.org/2000/svg" width="201.581" height="201.59" viewBox="0 0 201.581 201.59">
  <path id="Path_12" data-name="Path 12" d="M187.334,150.54V140.293h-6.719V150.54a33.441,33.441,0,0,0-17.889,7.427l-6.5-6.5a50.3,50.3,0,0,0-3.137-66.243l10.934-10.934a26.84,26.84,0,0,0,16.593,8.674v10.3h6.719v-10.3a26.873,26.873,0,1,0-28.268-36.738h-8.687v6.719h6.937a26.631,26.631,0,0,0,2.813,15.735L148.113,80.694a50.287,50.287,0,0,0-62.661,0L75.59,70.833a33.441,33.441,0,0,0,7.427-17.889h6.888V46.224H83.018A33.6,33.6,0,1,0,36.152,80.366V89.9h6.719V82.5a33.566,33.566,0,0,0,27.968-6.92l9.638,9.638A50.3,50.3,0,0,0,73.19,145.4L51.668,163.843a23.357,23.357,0,0,0-8.8-3.149V150.372H36.152v10.323a23.516,23.516,0,1,0,24.6,33.352h5.633v-6.719h-3.6a23.441,23.441,0,0,0-5.855-19.144L76.975,151a50.321,50.321,0,0,0,74.72,5.439l6.279,6.279a33.437,33.437,0,0,0-7.6,21.249c0,1.134.058,2.254.168,3.36H140.3v6.719h11.625a33.6,33.6,0,1,0,35.409-43.506Zm0-94.237a3.36,3.36,0,1,1-6.719,0v-3.36a3.36,3.36,0,1,1,6.719,0Zm-8.552,8.635a10.057,10.057,0,0,0,10.385,0,11.727,11.727,0,0,1,4.864,8.824,20.085,20.085,0,0,1-20.114,0,11.727,11.727,0,0,1,4.865-8.823Zm5.192-28.792A20.141,20.141,0,0,1,199.849,68.7a18.427,18.427,0,0,0-6.4-8.962,10.032,10.032,0,0,0,.6-3.439v-3.36a10.079,10.079,0,0,0-20.158,0V56.3a10.032,10.032,0,0,0,.6,3.439,18.427,18.427,0,0,0-6.4,8.962,20.141,20.141,0,0,1,15.874-32.559ZM30.211,197.947a11.858,11.858,0,0,1,4.106-5.346,10.058,10.058,0,0,0,10.389,0,11.667,11.667,0,0,1,4.111,5.343,16.755,16.755,0,0,1-18.606,0Zm9.3-10.62a3.36,3.36,0,1,1,3.36-3.36A3.36,3.36,0,0,1,39.511,187.327Zm14.274,5.482a18.358,18.358,0,0,0-4.8-5.4,10.079,10.079,0,1,0-18.946,0,18.6,18.6,0,0,0-4.792,5.414,16.8,16.8,0,1,1,28.539-.016ZM22.713,49.583A26.877,26.877,0,1,1,66.388,70.542V61.034A18.436,18.436,0,0,0,59.064,46.3a10.032,10.032,0,0,0,.6-3.44V39.5a10.079,10.079,0,0,0-20.158,0v3.36a10.032,10.032,0,0,0,.6,3.439,18.436,18.436,0,0,0-7.324,14.731v9.508A26.834,26.834,0,0,1,22.713,49.583ZM46.23,42.864V39.5a3.36,3.36,0,1,1,6.719,0v3.36a3.36,3.36,0,1,1-6.719,0ZM39.511,74.492V61.034A11.73,11.73,0,0,1,44.4,51.5a10.044,10.044,0,0,0,1.833.866V66.382H52.95V52.365a10.044,10.044,0,0,0,1.833-.866,11.73,11.73,0,0,1,4.887,9.535V74.492a26.79,26.79,0,0,1-20.158,0Zm77.271,1.968A43.651,43.651,0,0,1,151.95,146l-5.286-10.572a3.359,3.359,0,0,0-1.141-1.293l-16.8-11.2a13.351,13.351,0,0,0,1.5-6.16V103.337A11.1,11.1,0,0,0,112.97,94.1l-8.13,5.42a3.359,3.359,0,0,0-1.5,2.8v14.456a13.351,13.351,0,0,0,1.5,6.16l-16.8,11.2a3.359,3.359,0,0,0-1.141,1.293L81.615,146A43.651,43.651,0,0,1,116.782,76.46Zm0,47.034a6.727,6.727,0,0,1-6.719-6.719v-6.719H123.5v6.719a6.727,6.727,0,0,1-6.719,6.719Zm-5.548-20.158L116.7,99.7a4.377,4.377,0,0,1,6.8,3.642Zm-1.851,24.649a13.371,13.371,0,0,0,4.04,1.8v13.459l-8.688-12.163Zm10.759,1.8a13.372,13.372,0,0,0,4.04-1.8l4.648,3.1-8.688,12.163ZM86.393,151.471l6.119-12.238,6.63-4.42,14.907,20.87a3.36,3.36,0,0,0,5.468,0l14.907-20.87,6.63,4.42,6.119,12.238a43.593,43.593,0,0,1-60.779,0Zm87.5,57.405V195.418a11.73,11.73,0,0,1,4.887-9.535,10.045,10.045,0,0,0,1.833.866v14.016h6.719V186.749a10.045,10.045,0,0,0,1.833-.866,11.73,11.73,0,0,1,4.887,9.535v13.458a26.79,26.79,0,0,1-20.158,0Zm13.438-31.628a3.36,3.36,0,0,1-6.719,0v-3.36a3.36,3.36,0,1,1,6.719,0Zm13.438,27.678v-9.508a18.436,18.436,0,0,0-7.324-14.73,10.032,10.032,0,0,0,.6-3.44v-3.36a10.079,10.079,0,1,0-20.158,0v3.36a10.032,10.032,0,0,0,.6,3.439,18.436,18.436,0,0,0-7.324,14.731v9.508a26.877,26.877,0,1,1,33.6,0Z" transform="translate(-15.99 -15.978)" fill="#b5508c"/>
  <rect id="Rectangle_6" data-name="Rectangle 6" width="6.719" height="6.719" transform="translate(80.635 30.246)" fill="#b5508c"/>
  <rect id="Rectangle_7" data-name="Rectangle 7" width="6.719" height="6.719" transform="translate(94.073 30.246)" fill="#b5508c"/>
  <rect id="Rectangle_8" data-name="Rectangle 8" width="6.719" height="6.719" transform="translate(107.512 30.246)" fill="#b5508c"/>
  <rect id="Rectangle_9" data-name="Rectangle 9" width="6.719" height="6.719" transform="translate(120.95 30.246)" fill="#b5508c"/>
  <rect id="Rectangle_10" data-name="Rectangle 10" width="6.719" height="6.719" transform="translate(70.556 171.349)" fill="#b5508c"/>
  <rect id="Rectangle_11" data-name="Rectangle 11" width="6.719" height="6.719" transform="translate(83.994 171.349)" fill="#b5508c"/>
  <rect id="Rectangle_12" data-name="Rectangle 12" width="6.719" height="6.719" transform="translate(97.433 171.349)" fill="#b5508c"/>
  <rect id="Rectangle_13" data-name="Rectangle 13" width="6.719" height="6.719" transform="translate(110.871 171.349)" fill="#b5508c"/>
  <rect id="Rectangle_14" data-name="Rectangle 14" width="6.719" height="6.719" transform="translate(57.118 171.349)" fill="#b5508c"/>
  <rect id="Rectangle_15" data-name="Rectangle 15" width="6.719" height="6.719" transform="translate(20.162 120.955)" fill="#b5508c"/>
  <rect id="Rectangle_16" data-name="Rectangle 16" width="6.719" height="6.719" transform="translate(20.162 107.516)" fill="#b5508c"/>
  <rect id="Rectangle_17" data-name="Rectangle 17" width="6.719" height="6.719" transform="translate(20.162 94.078)" fill="#b5508c"/>
  <rect id="Rectangle_18" data-name="Rectangle 18" width="6.719" height="6.719" transform="translate(20.162 80.64)" fill="#b5508c"/>
  <rect id="Rectangle_19" data-name="Rectangle 19" width="6.719" height="6.719" transform="translate(164.625 110.876)" fill="#b5508c"/>
  <rect id="Rectangle_20" data-name="Rectangle 20" width="6.719" height="6.719" transform="translate(164.625 97.438)" fill="#b5508c"/>
  <rect id="Rectangle_21" data-name="Rectangle 21" width="6.719" height="6.719" transform="translate(164.625 83.999)" fill="#b5508c"/>
</svg>
